Coordinates
version=1
nRows=14
nColumns=33
inDegrees=yes

Units are S.I. units (second, meters, Newtons, ...)
Angles are in degrees.

endheader
time	ground_thorax_rot_x	ground_thorax_rot_y	ground_thorax_rot_z	ground_thorax_tx	ground_thorax_ty	ground_thorax_tz	clav_prot_r	clav_elev_r	scapula_abduction_r	scapula_elevation_r	scapula_upward_rot_r	scapula_winging_r	shoulder_elv_r	plane_of_elev_r	axial_rot_r	elbow_flexion_r	pro_sup_r	wrist_flex_r	wrist_dev_r	clav_prot_l	clav_elev_l	scapula_abduction_l	scapula_elevation_l	scapula_upward_rot_l	scapula_winging_l	shoulder_elv_l	plane_of_elev_l	axial_rot_l	elbow_flexion_l	pro_sup_l	wrist_flex_l	wrist_dev_l
      4.94000000	    -90.00000000	     90.00000000	    -90.00000000	   -188.88270716	    817.55149314	      5.58675497	     30.37215676	     40.23789456	     45.00000000	     45.00000000	      6.88591891	  -3980.47818182	    639.62874009	    159.79232518	     -9.03690269	   1812.50879684	     21.70310744	     19.64562165	      7.64095688	    -45.00000000	      2.48151640	     37.76562235	    -14.12001753	    -45.00000000	   1907.71308062	  -4023.64062324	    150.83342870	     34.76908483	   -709.56909328	     10.11125227	      7.47609725	    -20.65875517
      4.95000000	    -90.00000000	     90.00000000	    -90.00000000	   -191.01941901	    818.44515526	      5.56146729	     30.24970381	     40.23139656	     45.00000000	     45.00000000	      7.00504268	  -3980.11257202	    639.72117281	    159.98373311	     -8.67046682	   1812.54045809	     21.43701649	     19.67292736	      7.62009392	    -45.00000000	      2.34472344	     37.50375026	    -13.97237366	    -45.00000000	   1907.84101587	  -4023.53560033	    150.82045754	     34.26985282	   -709.80250138	      9.75159694	      7.48314702	    -20.60807467
      4.96000000	    -90.00000000	     90.00000000	    -90.00000000	   -193.09017456	    819.32935230	      5.53945480	     30.14109769	     40.18308577	     45.00000000	     45.00000000	      7.11434324	  -3980.27466359	    639.70600461	    159.56180772	     -8.37911963	   1812.66649057	     21.13454022	     19.67697083	      7.47620822	    -45.00000000	      2.36632296	     37.57635556	    -13.94608204	    -45.00000000	   1907.62092894	  -4023.16583383	    150.65874945	     33.92947717	   -709.59043576	      9.34345502	      7.37308282	    -20.62769510
      4.97000000	    -90.00000000	     90.00000000	    -90.00000000	   -195.09769610	    820.19939861	      5.52149093	     29.95891608	     40.09890008	     45.00000000	     45.00000000	      7.18097057	  -3980.14134560	    639.77498231	    159.55557397	     -8.08631622	   1812.58098373	     20.76800703	     19.64589443	      7.46302599	    -45.00000000	      2.59155718	     37.37490833	    -13.98681451	    -45.00000000	   1907.46316019	  -4023.11764253	    150.66342222	     33.50376229	   -709.51339657	      8.81260136	      7.33426374	    -20.59684018
      4.98000000	    -90.00000000	     90.00000000	    -90.00000000	   -197.03632698	    821.04657476	      5.50833881	     29.87848414	     40.15351815	     45.00000000	     45.00000000	      7.24067970	  -3979.66921027	    639.91490201	    159.90780189	     -7.63262238	   1812.54690847	     20.54607866	     19.68778538	      7.44944969	    -45.00000000	      2.08170090	     36.98450926	    -13.72748207	    -45.00000000	   1907.81215903	  -4022.99982711	    150.57682918	     32.90767268	   -709.74384248	      8.49900120	      7.37570827	    -20.58088158
      4.99000000	    -90.00000000	     90.00000000	    -90.00000000	   -198.91139356	    821.86557494	      5.50074124	     29.78440552	     40.06344780	     45.00000000	     45.00000000	      7.37564673	  -3980.06240423	    639.83173730	    159.25679707	     -7.39625102	   1812.68449134	     20.27494500	     19.65663834	      7.25140439	    -45.00000000	      2.35425170	     37.14906363	    -13.82163969	    -45.00000000	   1907.38634830	  -4022.65882036	    150.47868846	     32.67804820	   -709.50481391	      8.09970982	      7.19759266	    -20.57013057
      5.00000000	    -90.00000000	     90.00000000	    -90.00000000	   -200.72270844	    822.65084871	      5.49949046	     29.61769549	     40.01676421	     45.00000000	     45.00000000	      7.42944672	  -3979.80246408	    639.93037042	    159.42793492	     -7.05797829	   1812.57216525	     20.02271325	     19.64491574	      7.23886477	    -45.00000000	      2.36495393	     36.92697110	    -13.76581866	    -45.00000000	   1907.37785638	  -4022.56009165	    150.39007512	     32.15301124	   -709.41582035	      7.66927042	      7.22560962	    -20.57684227
      5.01000000	    -90.00000000	     90.00000000	    -90.00000000	   -202.47202251	    823.39714181	      5.50553123	     29.53243130	     40.05331306	     45.00000000	     45.00000000	      7.45151532	  -3979.45884248	    640.10156600	    159.61088777	     -6.60149150	   1812.54777254	     19.87272924	     19.66389334	      7.21339671	    -45.00000000	      2.04952349	     36.54558111	    -13.58533393	    -45.00000000	   1907.60432026	  -4022.50951489	    150.40914586	     31.63167683	   -709.67026922	      7.36522005	      7.20303945	    -20.52059202
      5.02000000	    -90.00000000	     90.00000000	    -90.00000000	   -204.16271487	    824.10233442	      5.52005504	     29.44238592	     39.97950328	     45.00000000	     45.00000000	      7.61217207	  -3979.66434327	    640.02277758	    159.23714663	     -6.34164590	   1812.65392811	     19.69651573	     19.64547979	      7.02081072	    -45.00000000	      2.15426583	     36.65989472	    -13.58909027	    -45.00000000	   1907.34386306	  -4022.14316120	    150.22841562	     31.30792276	   -709.45304290	      7.03026058	      7.11899292	    -20.53608121
      5.03000000	    -90.00000000	     90.00000000	    -90.00000000	   -205.79552769	    824.76566781	      5.54517133	     29.30136777	     40.00101300	     45.00000000	     45.00000000	      7.57535774	  -3979.21229321	    640.27576901	    159.61794008	     -5.87634273	   1812.55803465	     19.62435659	     19.64984191	      7.06852810	    -45.00000000	      2.00117391	     36.25156221	    -13.44909736	    -45.00000000	   1907.52270686	  -4022.18894839	    150.29346412	     30.73914069	   -709.70670400	      6.76599049	      7.13873933	    -20.47262012
      5.04000000	    -90.00000000	     90.00000000	    -90.00000000	   -207.37230605	    825.38879517	      5.58254247	     29.24773984	     39.92789619	     45.00000000	     45.00000000	      7.78381856	  -3979.64360296	    640.10157375	    158.98198803	     -5.67301437	   1812.68871460	     19.48171255	     19.62261485	      6.78606885	    -45.00000000	      1.98652073	     36.40754920	    -13.43237087	    -45.00000000	   1907.29166816	  -4021.75746250	    150.05083448	     30.47049211	   -709.42184448	      6.44201011	      6.98155826	    -20.50777750
      5.05000000	    -90.00000000	     90.00000000	    -90.00000000	   -208.89619908	    825.97744589	      5.63707157	     29.09368713	     39.89337332	     45.00000000	     45.00000000	      7.79771889	  -3979.37992069	    640.25231671	    159.18330126	     -5.31443407	   1812.63074455	     19.40591606	     19.59972086	      6.78775172	    -45.00000000	      2.06962822	     36.18971458	    -13.35782397	    -45.00000000	   1907.22382473	  -4021.68559183	    150.08495072	     29.96525473	   -709.39417023	      6.09996570	      6.97556668	    -20.47880203
      5.06000000	    -90.00000000	     90.00000000	    -90.00000000	   -210.36946417	    826.53277877	      5.70656672	     29.01790255	     39.94557070	     45.00000000	     45.00000000	      7.80750884	  -3979.15295090	    640.43332780	    159.31465491	     -4.86131376	   1812.60623699	     19.38721319	     19.60584037	      6.75338512	    -45.00000000	      1.71446687	     35.85581977	    -13.17104052	    -45.00000000	   1907.47148671	  -4021.62491241	    150.04050360	     29.45328494	   -709.60612058	      5.87822050	      6.94410687	    -20.43534941
      5.07000000	    -90.00000000	     90.00000000	    -90.00000000	   -211.79955426	    827.05735000	      5.78837948	     28.93672537	     39.87955884	     45.00000000	     45.00000000	      7.98622524	  -3979.30667139	    640.33276638	    159.02765235	     -4.63014180	   1812.69770420	     19.33407993	     19.56489184	      6.55591767	    -45.00000000	      1.78567003	     35.96996043	    -13.14912579	    -45.00000000	   1907.22810742	  -4021.29675151	    149.91541501	     29.13856997	   -709.43458522	      5.63930563	      6.83009576	    -20.43679780
